<?xml version="1.0" encoding="utf-8"?>
<!-- Generator: Adobe Illustrator 21.0.0, SVG Export Plug-In . SVG Version: 6.00 Build 0)  -->
<svg version="1.1" id="Layer_1" xmlns="http://www.w3.org/2000/svg" xmlns:xlink="http://www.w3.org/1999/xlink" x="0px" y="0px"
	 viewBox="0 0 264.2 253.5" style="enable-background:new 0 0 264.2 253.5;" xml:space="preserve">
<style type="text/css">
	.st0{fill:#D9B45F;stroke:#D9B45F;stroke-width:6;stroke-miterlimit:10;}
	.st1{fill:#FFFFFF;stroke:#D9B45F;stroke-width:6;stroke-miterlimit:10;}
	.st2{fill:#26231D;}
	.st3{fill:none;stroke:#D9B45F;stroke-width:6;stroke-miterlimit:10;}
	.st4{fill:none;stroke:#D9B45F;stroke-width:8;stroke-miterlimit:10;}
</style>
<g id="Layer_1_1_">
	<polygon class="st0" points="37.2,65 37.2,187.3 144.2,248.5 251.2,187.3 251.2,65 144.2,3.8 	"/>
	<polygon class="st1" points="12.6,65 12.6,188.3 119.6,249.5 226.6,188.3 226.6,66 119.6,3.8 	"/>
</g>
<g id="Layer_2">
	<g>
		<path class="st2" d="M134.6,195.8c-1.8-8.8,0.7-17,7.2-24.1c2.9-3.4,6.9-5.6,11.4-6.9c3.4-1.2,4.6-2.8,5.2-5.5
			c1.2-6.4,2.8-22.1,3.6-28.2c0.5-2.9-0.1-5.8-0.9-8.6c-0.8-2.7-2.4-3.2-5.2-1.8c-2.1,1-3.9,2.2-5.4,3.7c-6,5.5-10.6,11.5-12.4,19
			c-3.5,13.7-7.2,27.6-10,41.4c-1.3,5.4-3.9,7-10.3,7c-5,0.1-6.9-1.7-7.1-6.2c0.1-4.5,0.9-8.9,1.6-13.4c3.8-19.4,8.8-38.8,13.4-58.3
			c2.2-10.5,4.3-20.8,7.9-31.2c3.6-10.7,7.5-21.6,13.9-31.5c2.8-4.3,5.2-4.9,10.3-3.3c3.5,1.3,4.7,2.8,4.1,6
			c-0.5,3.4-1.6,6.7-2.7,10.3l-12.8,45.8c-0.8,2.8-1.1,5.4-1.6,8.2c1.8,0.3,2.6-0.6,3.4-1.2c11.9-7.9,28.2-0.9,31,10.3
			c2.2,8.9,0.7,26.6-0.2,30c-0.1,0.4-0.4,1.5,0.2,2.2c0.7,0.8,2.3,0.5,5.4,0.1c2.9-0.4,5.9-0.7,8.9-1.1c1.4-0.2,3-0.4,5.1-0.6
			c2.5-0.3,2.8-0.3,4.7-0.5c3-0.3,3.8-0.5,6.6-0.9c1.7-0.2,2.4-0.3,7-0.7c6.4-0.6,7.5-0.8,9.1-0.9c0.1,0,1-0.1,1.9-0.2
			c2.1-0.2,3.7-0.3,5.2-0.4c0.7-0.1,2.2-0.2,5.3-0.4c6.2-0.5,4.7-0.4,8.2-0.7c0,0,4.7-0.4,8.3-1.5c0.9-0.3,1.8-0.7,2.3-1.6
			c0.1-0.2,0.5-0.8,0.4-1.7c-0.1-0.8-0.6-1.3-0.8-1.5c-0.3-0.4-0.9-0.8-3.2-1.2c-2.2-0.5-2.5-0.2-3.4-0.7c-0.4-0.2-1.8-0.9-1.9-2.1
			c-0.1-1,0.6-1.8,0.7-1.9c1.2-1.4,3.5-1.2,4.4-1.2c3.4,0.2,8.9,2.4,10,7.3c0.8,3.5-1.1,6.4-1.3,6.6c-2.1,3.1-5.8,4-12.7,5.1
			c-13.3,2-24.8,2.5-32.3,3.3c-0.7,0.1-3.5,0.4-6.4,0.7c-5.3,0.6-6.3,0.7-6.8,0.8c-3.6,0.4-6.2,0.8-8.2,1.2
			c-4.2,0.7-9.9,1.5-18.1,2.7c-0.7,1.7-1.8,4.2-3.2,7.1c-4.4,9.7-6.6,14.5-8.6,17c-4.7,5.8-10.7,10.6-19,11.8
			C139.6,204.4,135.6,202.1,134.6,195.8z M154.7,171.5c-9.4,4.9-13.5,15.6-9.1,22.9C149.4,186.7,152.6,179.6,154.7,171.5z"/>
	</g>
	<g>
		<path class="st2" d="M145.9,92.7c-2.5-2.3-6.5-1.7-8.4,1.3c-2,4-5.2,11.6-10.4,17.1c-3.8,4-10.2,9.4-20,13.6
			c-1.9,0.9-3.2,0.6-3.6-1.7c-1.4-7.4-4.2-14.5-6-21.9c-1.6-5.4-0.8-10.8,0.2-16.2c0.8-3.2,2.7-6,5.8-7.7c3.5-1.9,5.4-1.2,6.4,2.8
			c0.8,2.6,0.6,5.4,0.4,8.2c0,2-0.2,4,0,6.2c0,2,2.5,4.3,5,4.5c2.1,0.2,3.2-1.2,3.6-3.2c1.2-3.9,1.2-7.4,1-11.3
			c-0.8-10.2-9-18.2-18.6-17.3c-6,0.6-11,3-14.6,6.8c-5.6,5.9-6.2,13.5-6.5,16.7c-1,12.6,5.7,19.8,2,23.9c-0.6,0.7-3.3,1.2-8.6,2.3
			c0,0-4.6,0.9-13,2c0,0-0.1,0-0.2,0c0,0,0,0,0,0c0,0,0,0,0,0c-0.2,0-0.3,0-1.1,0.2c-2.1,0.3-4.9,0.8-18.4,2.9l0,0
			c-2.5,0.5-5.4,1-10.9,1.8c-2,0.3-6.5,1-9,1.4c-0.7,0.1-1.7,0.3-2.9,0.6c-0.8,0.2-1.3,0.3-1.7,0.4c-2.6,0.6-4.8,1.2-6.5,1.7
			c-2.1,0.7-3.3,1.1-4.6,2c-0.3,0.2-1.4,1-2.6,2.2c-0.8,0.9-1.1,1.5-1.3,1.8c-0.4,0.8-0.5,1.5-0.6,1.9c-0.3,1.5,0,2.7,0.1,3
			c0.3,1.1,0.8,1.9,1.1,2.2c0.2,0.3,1,1.3,2.3,2.1c0.2,0.1,0.4,0.2,0.6,0.3c2.2,1.1,4.7,1.7,4.7,1.7c3.3,0.8,4.9,1.2,5.4,0.5
			c0.2-0.3,0-0.4,0.2-2.1c0-0.1,0-0.5-0.1-0.9c-0.1-0.2-0.1-0.4-0.3-0.6c-0.3-0.3-0.7-0.3-0.9-0.3c-0.1,0-1.3-0.4-3.6-1.3
			c-0.1,0-0.3-0.1-0.5-0.2c-0.1,0-0.2-0.1-0.4-0.2c-0.7-0.3-1.1-0.5-1.5-0.8c-0.2-0.2-0.7-0.6-1-1.3c-0.1-0.1-0.3-0.7-0.1-1.5
			c0.1-0.9,0.6-1.4,0.8-1.7c1.2-1.4,3.4-1.7,5.6-2.1c1.6-0.3,3.2-0.7,4.9-0.9c0,0-4.6,0.5,20.3-3.1c9.9-1.4,11.5-1.6,16.3-2.4
			c1.2-0.2,4.8-0.7,9.5-1.6c4.2-0.7,5.5-1,8.9-1.6c2.8-0.5,6.8-1.1,11.7-1.8c0.4,3.4,0.8,6.3,1.2,8.8c0.1,0.8,0.3,2.2-0.4,3.5
			c-0.4,0.7-1.1,1.2-2.1,1.6c-5,2.2-9.8,4.9-14.6,7.7c-5.6,3.2-10,7.4-13.4,12.8c-4.8,6.9-7.2,14.9-4.4,23.6
			c2.3,7.1,5.7,13.4,12.9,16c12,4.5,29.4,0.8,35.7-16.8c4.4-12.2,6.5-24.7,6.5-37.8c0-4.9,0-5.1,4-6.8c10-4.3,19.2-9.4,25.2-18.7
			c3.2-5,5.9-9.9,8-13.3c1.1-1.9,2.1-3.9,3.4-6.2C147,94.5,147,93.7,145.9,92.7z M83.6,148.5c-1,9.9-3.1,19.5-6.7,28.6
			c-1.4,3.5-3.7,6.3-6.9,8.3c-2.9,1.7-4,1.5-6.4-1.1c-5-5.7-5.8-14.3-2.2-21.3c3.9-7.2,9.4-12.1,16.3-15.7c1.8-0.9,3.4-2.4,5.4-2.2
			C83.9,146.1,83.7,147.4,83.6,148.5z"/>
	</g>
	<line class="st3" x1="12.6" y1="136.9" x2="12.6" y2="150.7"/>
	<line class="st4" x1="250.3" y1="129.9" x2="250.3" y2="150.5"/>
</g>
</svg>
