<?xml version="1.0" encoding="iso-8859-1"?>
<!-- Generator: Adobe Illustrator 18.1.1, SVG Export Plug-In . SVG Version: 6.00 Build 0)  -->
<svg version="1.1" id="Capa_1" xmlns="http://www.w3.org/2000/svg" xmlns:xlink="http://www.w3.org/1999/xlink" x="0px" y="0px"
	 viewBox="0 0 90 90" style="enable-background:new 0 0 90 90;" xml:space="preserve">
<g>
	<g>
		<path style="fill:#030104;" d="M2.97,21.428c2.441,1.312,36.241,19.468,37.499,20.144c1.259,0.676,2.889,1.002,4.531,1.002
			c1.643,0,3.271-0.326,4.531-1.002c1.258-0.676,35.058-18.831,37.498-20.144C89.472,20.117,91.784,16,87.297,16H2.703
			C-1.781,16,0.527,20.117,2.97,21.428z M88.064,31.428c-2.773,1.447-36.835,19.26-38.533,20.144
			c-1.699,0.887-2.889,1.002-4.531,1.002s-2.832-0.115-4.531-1.002C38.771,50.688,4.711,32.875,1.936,31.428
			C-0.017,30.411,0,31.604,0,32.526c0,0.922,0,36.679,0,36.679C0,71.301,2.792,74,4.959,74h80.082C87.208,74,90,71.301,90,69.205
			c0,0,0-35.757,0-36.679C90,31.604,90.02,30.411,88.064,31.428z"/>
	</g>
</g>
<g>
</g>
<g>
</g>
<g>
</g>
<g>
</g>
<g>
</g>
<g>
</g>
<g>
</g>
<g>
</g>
<g>
</g>
<g>
</g>
<g>
</g>
<g>
</g>
<g>
</g>
<g>
</g>
<g>
</g>
</svg>
