<svg width="67" height="77" viewBox="0 0 67 77" fill="none" xmlns="http://www.w3.org/2000/svg">
<path fill-rule="evenodd" clip-rule="evenodd" d="M31.435 0.937021C32.6726 0.22249 34.1974 0.22249 35.435 0.937022L64.87 17.9313C66.1076 18.6459 66.87 19.9664 66.87 21.3954V35.433C66.4506 35.5686 66.2099 35.6498 66.0768 35.7041L65.9604 35.7416C65.5666 35.8683 65.1407 36.0054 64.6011 36.1963C64.3479 36.2904 64.0947 36.3845 64.0658 36.3918C63.8506 36.4601 63.6693 36.5269 63.3474 36.6454C62.9876 36.7778 62.4523 36.9748 61.4978 37.311C60.3302 37.7135 60.0526 37.819 59.6634 37.967L59.6634 37.9671L59.523 38.0204C59.2778 38.1203 59.0882 38.2003 58.9173 38.2724C58.5436 38.43 58.2592 38.55 57.6785 38.7586C57.4964 38.8251 57.3662 38.8715 57.2461 38.9143L57.2459 38.9143C57.0129 38.9973 56.8176 39.0669 56.3547 39.2436C55.7615 39.4535 55.3131 39.6272 54.9224 39.7864C54.5262 39.9437 54.1283 40.0944 53.7334 40.2441L53.7334 40.2441L53.7333 40.2441C53.292 40.4114 52.8544 40.5772 52.4268 40.7491C52.3481 40.7799 52.2729 40.8096 52.2011 40.838C51.4803 41.1229 51.0939 41.2755 50.8571 41.1111C50.6393 40.9566 50.6397 40.6315 50.6399 40.5002L50.6399 40.489C50.6542 39.4401 49.8067 34.2099 48.5258 31.7939C46.9047 28.7559 41.6814 27.9105 38.8101 31.058C38.7856 31.0882 38.7614 31.1199 38.7367 31.1523C38.5722 31.3679 38.3849 31.6135 37.9132 31.6514C37.8979 31.4281 37.8795 31.21 37.8614 30.9937C37.8107 30.3902 37.7613 29.802 37.7825 29.1628L38.1702 14.9837C38.1776 14.8401 38.1854 14.6979 38.193 14.557C38.2453 13.5977 38.2943 12.6973 38.2058 11.8079C38.1477 10.8385 37.6919 10.4914 36.585 10.3686C34.9935 10.2749 34.3425 10.6222 33.8436 12.0692C32.7085 15.3971 32.3692 18.8335 32.1022 22.1902C31.8295 25.2792 31.9376 28.2454 32.0546 31.2598C31.2092 32.6578 29.7897 34.502 27.4752 36.2617C26.9906 36.6597 26.5927 36.667 26.3105 36.0305C25.7672 34.8526 25.0961 33.7375 24.4225 32.6183C23.9296 31.7991 23.4353 30.9778 22.9888 30.128C22.1348 28.6814 21.9754 27.0609 21.8738 25.426C21.8736 24.4422 22.2206 23.4944 22.9945 22.7781C23.8697 21.9749 24.4702 22.0399 25.0491 23.1249C25.4688 23.8193 25.6137 24.644 25.7585 25.4686C25.8063 25.6594 25.8477 25.8518 25.8896 26.0463C25.9748 26.4417 26.0619 26.8456 26.2074 27.2626C26.3522 27.8413 27.2421 28.3259 27.98 28.2027C28.6021 28.1086 28.819 27.6238 28.79 27.0161C28.8548 25.8008 28.6014 24.788 28.2612 23.674C27.2912 20.7806 24.3393 19.0594 21.6267 20.0149C19.934 20.6229 18.661 21.6793 17.8945 23.0395C16.726 25.1083 17.0629 27.3016 17.2134 28.2816C17.2166 28.3024 17.2197 28.3227 17.2227 28.3423C17.5289 30.1697 18.2787 31.485 18.8703 32.5228C19.4825 33.5967 19.9253 34.3735 19.5318 35.1131C19.42 35.3368 18.7938 35.6383 17.588 36.219C17.4677 36.2769 17.3417 36.3376 17.2099 36.4012C17.2099 36.4012 15.944 36.9947 13.5931 37.9212L13.5352 37.9356C13.4774 37.9501 13.4484 37.9574 13.2314 38.0732C12.9822 38.1747 12.699 38.296 12.167 38.5237C11.448 38.8314 10.2748 39.3335 8.11727 40.2444C7.43009 40.5701 6.62716 40.9248 5.09363 41.5544C4.53665 41.786 3.28524 42.3144 2.59081 42.6111C2.3955 42.6908 2.12063 42.821 1.79513 42.9947C1.66802 43.0625 1.56822 43.113 1.48554 43.1548C1.42705 43.1843 1.37713 43.2095 1.33218 43.2335C0.826632 43.4916 0.379947 43.7349 0 43.9504V21.3954C0 19.9664 0.762396 18.6459 2 17.9313L31.435 0.937021ZM0 48.0025V45.7421C0.222575 45.6076 0.47817 45.4929 0.737427 45.3766C0.781432 45.3568 0.825542 45.337 0.869614 45.3171C1.00719 45.2539 1.14406 45.1879 1.28177 45.1215C1.58572 44.9749 1.89372 44.8264 2.22229 44.7019C2.22229 44.7019 0.92746 45.1796 7.87173 42.3352C8.34267 42.144 8.74638 41.9803 9.09868 41.8375C10.8135 41.1423 11.3103 40.9409 12.4144 40.4606C12.4906 40.4275 12.602 40.3807 12.744 40.321C13.2226 40.1201 14.049 39.773 15.0475 39.3098C15.7525 39.0031 16.1606 38.8158 16.5816 38.6226C16.856 38.4966 17.1358 38.3681 17.5069 38.2025C18.2809 37.8551 19.3948 37.3919 20.762 36.8346C21.1239 37.7894 21.4496 38.5996 21.7463 39.294L21.7535 39.3125C21.8416 39.5393 21.9895 39.9203 21.884 40.3357C21.8189 40.5672 21.6526 40.7626 21.3922 40.9507C20.1047 41.9493 18.9113 43.0781 17.7251 44.2358C16.3364 45.5672 15.3673 47.101 14.7745 48.9097C13.8852 51.2538 13.7699 53.7423 15.21 56.057C16.3895 57.9449 17.8295 59.5217 20.101 59.7527C23.8991 60.186 28.666 57.8556 29.2147 52.3069C29.6045 48.4582 29.3072 44.6892 28.3587 40.8987C28.004 39.4808 27.9895 39.423 29.0238 38.6415C30.1333 37.7958 31.1894 36.9181 32.1174 35.9441C32.1188 36.1194 32.1203 36.2947 32.1217 36.47V36.4702C32.1576 40.8807 32.1934 45.2788 32.4188 49.6295C32.436 49.818 32.4524 50.0061 32.4689 50.1937L32.4689 50.1938C32.5704 51.3529 32.6705 52.4958 32.926 53.6227C33.3097 54.9103 33.9898 55.2936 35.4293 54.9026C37.2811 54.4393 37.9176 53.7881 37.9028 52.1314C37.7413 48.5452 37.7648 44.8901 37.7881 41.2703V41.2701C37.792 40.655 37.796 40.0408 37.799 39.4282C37.7768 37.1277 38.6734 35.0585 40.0114 33.0327C40.3368 32.4901 40.7708 32.0125 41.306 31.5711C42.0148 30.9633 42.514 30.9921 42.941 31.7155C43.3752 32.4677 43.7587 33.2634 43.824 34.1388C43.8899 34.7104 44.0014 35.5609 44.127 36.519C44.4019 38.6161 44.7443 41.2284 44.824 42.5592C44.8459 43.3839 44.6145 43.9337 43.7176 44.5271C42.5096 45.2291 41.5115 46.1552 40.9185 47.349C39.5518 49.874 39.4221 52.4277 40.58 54.8437C41.3255 56.5942 42.6494 56.9702 44.6604 56.1595C46.9751 55.2114 48.3637 53.3881 49.3038 51.3695C49.7015 50.5014 49.9905 48.9532 50.5614 45.8279C50.7566 44.8874 50.8938 44.0844 50.9733 43.5418C51.5173 43.3179 52.0219 43.1108 52.4908 42.9183C53.9924 42.3021 55.1277 41.8362 56.0151 41.4501C56.5649 41.1895 57.2882 40.8856 58.301 40.5092C58.4078 40.4585 58.602 40.386 59.383 40.0945L59.3833 40.0944C59.607 40.0109 59.8789 39.9095 60.2106 39.7854C61.028 39.4886 61.8165 39.1991 62.0118 39.1195C62.6765 38.8757 63.458 38.6119 64.3324 38.3168C65.1103 38.0541 65.9618 37.7667 66.87 37.4465V55.384C66.87 56.8131 66.1076 58.1336 64.87 58.8481L35.435 75.8424C34.1974 76.557 32.6726 76.5569 31.435 75.8424L2 58.8481C0.762395 58.1336 0 56.8131 0 55.384V48.0331C0.00912328 48.0258 0.0180432 48.0194 0.0252543 48.0142C0.0413196 48.0027 0.0489037 47.9972 0.0313599 48.0016C0.0207416 48.0019 0.010289 48.0022 0 48.0025ZM44.6367 46.3572C42.2715 48.4556 41.8599 51.8485 43.6616 53.6422C44.2036 51.1391 44.6155 48.853 44.6367 46.3572ZM22.5305 53.6104C22.9133 50.7166 22.8259 47.7868 22.3985 44.8498C22.3946 44.8248 22.3908 44.7994 22.387 44.7738C22.3407 44.4652 22.2883 44.1158 22.0077 43.9022C21.5751 43.9655 21.2696 44.2751 20.9591 44.5896C20.8438 44.7064 20.7279 44.8239 20.6045 44.9297C18.8686 46.4709 17.6319 48.287 17.0247 50.6527C16.4898 52.9388 17.3439 55.3693 19.2034 56.6566C20.0861 57.2352 20.4188 57.2134 21.1349 56.5116C21.916 55.7012 22.3788 54.7245 22.5305 53.6104Z" fill="#D9B45F"/>
</svg>
