<?xml version="1.0" standalone="no"?>
<!DOCTYPE svg PUBLIC "-//W3C//DTD SVG 20010904//EN"
 "http://www.w3.org/TR/2001/REC-SVG-20010904/DTD/svg10.dtd">
<svg version="1.0" xmlns="http://www.w3.org/2000/svg"
 width="528.000000pt" height="528.000000pt" viewBox="0 0 528.000000 528.000000"
 preserveAspectRatio="xMidYMid meet">
<metadata>
Created by potrace 1.11, written by Peter Selinger 2001-2013
</metadata>
<g transform="translate(0.000000,528.000000) scale(0.100000,-0.100000)"
fill="#000000" stroke="none">
<path d="M2315 5120 c-39 -22 -77 -45 -85 -50 -8 -6 -27 -15 -42 -21 -16 -6
-28 -15 -28 -20 0 -5 -9 -9 -19 -9 -11 0 -21 -4 -23 -8 -1 -4 -129 -79 -283
-167 -154 -87 -318 -182 -365 -209 -47 -28 -87 -51 -90 -51 -3 0 -16 -8 -30
-17 -14 -8 -122 -71 -240 -138 -274 -156 -247 -141 -444 -254 -92 -53 -172
-96 -177 -96 -5 0 -9 -4 -9 -10 0 -5 -4 -10 -9 -10 -5 0 -49 -23 -98 -51 -48
-29 -109 -63 -135 -77 l-46 -26 -1 -595 c0 -328 0 -619 -1 -647 0 -51 -1 -52
-40 -68 -46 -18 -129 -97 -131 -123 -6 -81 -1 -98 36 -134 19 -19 57 -43 85
-53 l50 -18 0 -57 c1 -31 2 -233 3 -449 l2 -394 119 -69 c65 -38 120 -69 122
-69 2 0 37 -20 77 -45 41 -25 78 -45 82 -45 5 0 16 -6 24 -14 9 -7 41 -27 71
-43 30 -17 145 -82 255 -145 110 -63 220 -126 245 -140 25 -14 132 -76 239
-137 106 -61 197 -111 201 -111 5 0 10 -3 12 -7 3 -8 66 -44 115 -67 13 -6 23
-14 23 -18 0 -5 5 -8 11 -8 6 0 24 -9 40 -21 16 -11 29 -17 29 -13 0 4 8 0 17
-8 10 -8 38 -26 63 -39 25 -13 47 -26 50 -29 3 -3 19 -12 35 -20 17 -8 32 -17
35 -20 3 -3 14 -10 25 -16 115 -62 142 -79 158 -92 9 -8 17 -12 17 -8 0 4 12
-1 28 -12 15 -11 45 -29 67 -40 l40 -20 125 74 c69 40 128 73 131 74 4 0 57
-29 118 -65 l112 -64 32 18 c175 99 222 127 225 133 2 5 8 8 12 8 5 0 48 23
96 50 48 28 89 50 91 50 2 0 20 11 41 23 20 13 57 35 82 49 25 14 61 34 80 45
19 11 107 61 194 112 88 50 161 91 162 91 2 0 28 16 58 35 30 19 57 35 59 35
3 0 56 30 118 66 63 37 143 82 179 102 36 19 89 50 118 69 29 18 54 33 56 33
2 0 57 31 122 68 66 38 144 83 174 99 30 17 105 60 167 96 61 36 114 63 117
60 8 -8 19 44 12 56 -4 5 -2 12 3 16 7 3 7 15 1 29 -5 13 -6 26 -3 30 3 3 5
36 4 73 -1 37 -2 75 -2 83 1 8 1 44 0 80 0 81 0 80 2 167 0 40 -2 77 -6 83 -3
5 7 15 22 21 55 22 98 43 117 58 50 43 66 131 35 193 -20 40 -76 88 -102 88
-9 0 -19 5 -22 10 -3 6 -15 10 -25 10 -17 0 -19 10 -19 113 -1 61 -1 121 -1
132 0 28 -1 147 -1 165 1 8 1 44 0 80 0 36 0 72 0 80 1 8 1 44 0 80 0 36 0 72
0 80 1 8 1 44 0 80 0 36 0 72 0 80 1 8 1 44 0 80 0 36 0 72 0 80 1 8 1 44 0
80 0 36 0 72 0 80 1 8 1 44 0 80 0 78 0 78 2 163 0 38 -4 74 -11 82 -12 15
-167 105 -180 105 -5 0 -10 3 -12 8 -1 4 -21 16 -43 27 -22 11 -44 24 -50 28
-24 18 -125 75 -125 70 0 -3 -8 1 -17 9 -10 8 -38 26 -63 39 -25 13 -48 28
-51 32 -3 5 -10 9 -15 9 -5 1 -18 6 -29 13 -59 37 -147 85 -155 85 -4 0 -10 3
-12 8 -1 4 -19 15 -38 26 -19 10 -235 133 -480 273 -245 141 -465 267 -490
281 -25 14 -130 74 -235 134 l-190 110 -50 -27 c-27 -14 -66 -35 -85 -47 -19
-11 -53 -31 -75 -44 l-41 -23 -57 34 c-32 19 -59 35 -61 35 -2 0 -30 16 -62
35 -32 19 -60 35 -64 35 -3 0 -37 -18 -75 -40z m-2124 -2642 c2 -46 -3 -93
-11 -101 -4 -5 -17 3 -28 17 -22 28 -20 59 6 89 20 23 32 21 33 -5z m4933
-241 c31 -22 28 -64 -4 -87 -34 -24 -36 -21 -38 48 -1 55 8 64 42 39z"/>
</g>
</svg>
